<?xml version="1.0" encoding="UTF-8"?>
<svg width="400" height="234" xmlns="http://www.w3.org/2000/svg">
<style>text {
    color: #666666;
}

@media (prefers-color-scheme: dark) {
    tspan {
        fill: #f3f3f3;
    }
}
@media (prefers-color-scheme: light) {
    tspan {
        fill: #333;
    }
}

@keyframes fadeIn {
    from {
        opacity: 0;
    }
    to {
        opacity: 1;
    }
}
@keyframes slideIn {
    from {
        width: 0;
    }
    to {
        width: 660;
    }
}

#lang_legend,
#title {
    opacity: 0;
    animation: fadeIn 1s ease-in forwards;
}
#bar_back {
    animation: slideIn 1.7s ease-in forwards;
}
</style>
<rect id="border" x="1" y="1" width="398" height="232" fill="none" stroke-width="1" rx="10" ry="10" />
<text id="title" x="20" y="30" font-size="18" font-weight="bold" fill='#cd450b' font-family="system-ui, -apple-system, sans-serif">Most Used Languages</text>

<defs>
    <clipPath id="roundedClip">
        <rect id="bar_back" x="20" y="50" width="360" height="10" rx="5" ry="5">
        </rect>
    </clipPath>
</defs>
<rect width="360" height="10" x="20" y="50" rx="5" ry="5" fill='#ccc' />
<g clip-path="url(#roundedClip)">
    <rect x="20" y="50" width="179" height="10" fill="#3178c6"> <title>TypeScript 49.83%</title> </rect>
    <rect x="199" y="50" width="47" height="10" fill="#4F5D95"> <title>PHP 13.09%</title> </rect>
    <rect x="246" y="50" width="47" height="10" fill="#f1e05a"> <title>JavaScript 13.08%</title> </rect>
    <rect x="293" y="50" width="30" height="10" fill="#663399"> <title>CSS 8.38%</title> </rect>
    <rect x="323" y="50" width="27" height="10" fill="#e34c26"> <title>HTML 7.51%</title> </rect>
    <rect x="350" y="50" width="19" height="10" fill="#3572A5"> <title>Python 5.41%</title> </rect>
    <rect x="369" y="50" width="6" height="10" fill="#c6538c"> <title>SCSS 1.59%</title> </rect>
    <rect x="375" y="50" width="1" height="10" fill="#878787"> <title>Hack 0.39%</title> </rect>
    <rect x="376" y="50" width="1" height="10" fill="#384d54"> <title>Dockerfile 0.34%</title> </rect>
    <rect x="377" y="50" width="1" height="10" fill="#A97BFF"> <title>Kotlin 0.19%</title> </rect>
    <rect x="378" y="50" width="1" height="10" fill="#89e051"> <title>Shell 0.16%</title> </rect>
    <rect x="379" y="50" width="0" height="10" fill="#dea584"> <title>Rust 0.02%</title> </rect>
</g>
<g id="lang_legend">
<circle cx="30" cy="90" r="6" fill="#3178c6" />
<text x="46" y="94" font-size="13" font-family="system-ui, -apple-system, sans-serif" fill='currentColor'><tspan>TypeScript</tspan> 49.83%</text>
<circle cx="220" cy="90" r="6" fill="#4F5D95" />
<text x="236" y="94" font-size="13" font-family="system-ui, -apple-system, sans-serif" fill='currentColor'><tspan>PHP</tspan> 13.09%</text>
<circle cx="30" cy="114" r="6" fill="#f1e05a" />
<text x="46" y="118" font-size="13" font-family="system-ui, -apple-system, sans-serif" fill='currentColor'><tspan>JavaScript</tspan> 13.08%</text>
<circle cx="220" cy="114" r="6" fill="#663399" />
<text x="236" y="118" font-size="13" font-family="system-ui, -apple-system, sans-serif" fill='currentColor'><tspan>CSS</tspan> 8.38%</text>
<circle cx="30" cy="138" r="6" fill="#e34c26" />
<text x="46" y="142" font-size="13" font-family="system-ui, -apple-system, sans-serif" fill='currentColor'><tspan>HTML</tspan> 7.51%</text>
<circle cx="220" cy="138" r="6" fill="#3572A5" />
<text x="236" y="142" font-size="13" font-family="system-ui, -apple-system, sans-serif" fill='currentColor'><tspan>Python</tspan> 5.41%</text>
<circle cx="30" cy="162" r="6" fill="#c6538c" />
<text x="46" y="166" font-size="13" font-family="system-ui, -apple-system, sans-serif" fill='currentColor'><tspan>SCSS</tspan> 1.59%</text>
<circle cx="220" cy="162" r="6" fill="#878787" />
<text x="236" y="166" font-size="13" font-family="system-ui, -apple-system, sans-serif" fill='currentColor'><tspan>Hack</tspan> 0.39%</text>
<circle cx="30" cy="186" r="6" fill="#384d54" />
<text x="46" y="190" font-size="13" font-family="system-ui, -apple-system, sans-serif" fill='currentColor'><tspan>Dockerfile</tspan> 0.34%</text>
<circle cx="220" cy="186" r="6" fill="#A97BFF" />
<text x="236" y="190" font-size="13" font-family="system-ui, -apple-system, sans-serif" fill='currentColor'><tspan>Kotlin</tspan> 0.19%</text>
<circle cx="30" cy="210" r="6" fill="#89e051" />
<text x="46" y="214" font-size="13" font-family="system-ui, -apple-system, sans-serif" fill='currentColor'><tspan>Shell</tspan> 0.16%</text>
<circle cx="220" cy="210" r="6" fill="#dea584" />
<text x="236" y="214" font-size="13" font-family="system-ui, -apple-system, sans-serif" fill='currentColor'><tspan>Rust</tspan> 0.02%</text>
</g>
</svg>
