<?xml version="1.0" encoding="UTF-8"?>
<svg width="410" height="290" xmlns="http://www.w3.org/2000/svg">
<style>text {
    color: #a89f9bff;
}

tspan {
    fill: #f3f3f3;
}

/* @media (prefers-color-scheme: dark) {
}
@media (prefers-color-scheme: light) {
    tspan {
        fill: #333;
        fill: #f3f3f3;
    }
} */

@keyframes fadeIn {
    from {
        opacity: 0;
    }
    to {
        opacity: 1;
    }
}
@keyframes slideIn {
    from {
        width: 0;
    }
    to {
        width: 660;
    }
}

#lang_legend,
#title {
    opacity: 0;
    animation: fadeIn 1s ease-in forwards;
}
#bar_back {
    animation: slideIn 1.7s ease-in forwards;
}
</style>
<rect id="border" x="1" y="1" width="408" height="288" fill='#19140fff' stroke-width="1" rx="15" ry="15" />
<text id="title" x="20" y="40" font-size="18" font-weight="bold" fill='#db4c0fff' font-family="system-ui, -apple-system, sans-serif">Most Used Languages</text>

<defs>
    <clipPath id="roundedClip">
        <rect id="bar_back" x="20" y="60" width="370" height="10" rx="5" ry="5">
        </rect>
    </clipPath>
</defs>
<rect width="370" height="10" x="20" y="60" rx="5" ry="5" fill='#ccc' />
<g clip-path="url(#roundedClip)">
    <rect x="20" y="60" width="137" height="10" fill="#00ADD8"> <title>Go 37.13%</title> </rect>
    <rect x="157" y="60" width="125" height="10" fill="#3178c6"> <title>TypeScript 33.71%</title> </rect>
    <rect x="282" y="60" width="26" height="10" fill="#663399"> <title>CSS 7.05%</title> </rect>
    <rect x="308" y="60" width="20" height="10" fill="#f1e05a"> <title>JavaScript 5.29%</title> </rect>
    <rect x="328" y="60" width="14" height="10" fill="#dea584"> <title>Rust 3.87%</title> </rect>
    <rect x="342" y="60" width="13" height="10" fill="#fcb32c"> <title>MDX 3.50%</title> </rect>
    <rect x="355" y="60" width="6" height="10" fill="#A97BFF"> <title>Kotlin 1.73%</title> </rect>
    <rect x="361" y="60" width="6" height="10" fill="#c6538c"> <title>SCSS 1.69%</title> </rect>
    <rect x="367" y="60" width="6" height="10" fill="#3572A5"> <title>Python 1.53%</title> </rect>
    <rect x="373" y="60" width="5" height="10" fill="#cccccc"> <title>Go Template 1.23%</title> </rect>
    <rect x="378" y="60" width="4" height="10" fill="#e34c26"> <title>HTML 1.09%</title> </rect>
    <rect x="382" y="60" width="3" height="10" fill="#427819"> <title>Makefile 0.84%</title> </rect>
    <rect x="385" y="60" width="2" height="10" fill="#384d54"> <title>Dockerfile 0.62%</title> </rect>
    <rect x="387" y="60" width="2" height="10" fill="#89e051"> <title>Shell 0.54%</title> </rect>
    <rect x="389" y="60" width="1" height="10" fill="#4F5D95"> <title>PHP 0.19%</title> </rect>
</g>
<g id="lang_legend">
<circle cx="30" cy="100" r="6" fill="#00ADD8" />
<text x="46" y="104" font-size="13" font-family="system-ui, -apple-system, sans-serif" fill='currentColor'><tspan>Go</tspan> 37.13%</text>
<circle cx="225" cy="100" r="6" fill="#3178c6" />
<text x="241" y="104" font-size="13" font-family="system-ui, -apple-system, sans-serif" fill='currentColor'><tspan>TypeScript</tspan> 33.71%</text>
<circle cx="30" cy="124" r="6" fill="#663399" />
<text x="46" y="128" font-size="13" font-family="system-ui, -apple-system, sans-serif" fill='currentColor'><tspan>CSS</tspan> 7.05%</text>
<circle cx="225" cy="124" r="6" fill="#f1e05a" />
<text x="241" y="128" font-size="13" font-family="system-ui, -apple-system, sans-serif" fill='currentColor'><tspan>JavaScript</tspan> 5.29%</text>
<circle cx="30" cy="148" r="6" fill="#dea584" />
<text x="46" y="152" font-size="13" font-family="system-ui, -apple-system, sans-serif" fill='currentColor'><tspan>Rust</tspan> 3.87%</text>
<circle cx="225" cy="148" r="6" fill="#fcb32c" />
<text x="241" y="152" font-size="13" font-family="system-ui, -apple-system, sans-serif" fill='currentColor'><tspan>MDX</tspan> 3.50%</text>
<circle cx="30" cy="172" r="6" fill="#A97BFF" />
<text x="46" y="176" font-size="13" font-family="system-ui, -apple-system, sans-serif" fill='currentColor'><tspan>Kotlin</tspan> 1.73%</text>
<circle cx="225" cy="172" r="6" fill="#c6538c" />
<text x="241" y="176" font-size="13" font-family="system-ui, -apple-system, sans-serif" fill='currentColor'><tspan>SCSS</tspan> 1.69%</text>
<circle cx="30" cy="196" r="6" fill="#3572A5" />
<text x="46" y="200" font-size="13" font-family="system-ui, -apple-system, sans-serif" fill='currentColor'><tspan>Python</tspan> 1.53%</text>
<circle cx="225" cy="196" r="6" fill="#cccccc" />
<text x="241" y="200" font-size="13" font-family="system-ui, -apple-system, sans-serif" fill='currentColor'><tspan>Go Template</tspan> 1.23%</text>
<circle cx="30" cy="220" r="6" fill="#e34c26" />
<text x="46" y="224" font-size="13" font-family="system-ui, -apple-system, sans-serif" fill='currentColor'><tspan>HTML</tspan> 1.09%</text>
<circle cx="225" cy="220" r="6" fill="#427819" />
<text x="241" y="224" font-size="13" font-family="system-ui, -apple-system, sans-serif" fill='currentColor'><tspan>Makefile</tspan> 0.84%</text>
<circle cx="30" cy="244" r="6" fill="#384d54" />
<text x="46" y="248" font-size="13" font-family="system-ui, -apple-system, sans-serif" fill='currentColor'><tspan>Dockerfile</tspan> 0.62%</text>
<circle cx="225" cy="244" r="6" fill="#89e051" />
<text x="241" y="248" font-size="13" font-family="system-ui, -apple-system, sans-serif" fill='currentColor'><tspan>Shell</tspan> 0.54%</text>
<circle cx="30" cy="268" r="6" fill="#4F5D95" />
<text x="46" y="272" font-size="13" font-family="system-ui, -apple-system, sans-serif" fill='currentColor'><tspan>PHP</tspan> 0.19%</text>
</g>
</svg>
