<?xml version="1.0" encoding="UTF-8"?>
<svg width="400" height="210" xmlns="http://www.w3.org/2000/svg">
<style>text {
    color: #666666;
}

@media (prefers-color-scheme: dark) {
    tspan {
        fill: #f3f3f3;
    }
}
@media (prefers-color-scheme: light) {
    tspan {
        fill: #333;
    }
}

@keyframes fadeIn {
    from {
        opacity: 0;
    }
    to {
        opacity: 1;
    }
}
@keyframes slideIn {
    from {
        width: 0;
    }
    to {
        width: 660;
    }
}

#lang_legend,
#title {
    opacity: 0;
    animation: fadeIn 1s ease-in forwards;
}
#bar_back {
    animation: slideIn 1.7s ease-in forwards;
}
</style>
<rect id="border" x="1" y="1" width="398" height="208" fill="none" stroke-width="1" rx="10" ry="10" />
<text id="title" x="20" y="30" font-size="18" font-weight="bold" fill='#cd450b' font-family="system-ui, -apple-system, sans-serif">Most Used Languages</text>

<defs>
    <clipPath id="roundedClip">
        <rect id="bar_back" x="20" y="50" width="360" height="10" rx="5" ry="5">
        </rect>
    </clipPath>
</defs>
<rect width="360" height="10" x="20" y="50" rx="5" ry="5" fill='#ccc' />
<g clip-path="url(#roundedClip)">
    <rect x="20" y="50" width="116" height="10" fill="#3178c6"> <title>TypeScript 32.26%</title> </rect>
    <rect x="136" y="50" width="71" height="10" fill="#f1e05a"> <title>JavaScript 19.72%</title> </rect>
    <rect x="207" y="50" width="64" height="10" fill="#663399"> <title>CSS 17.73%</title> </rect>
    <rect x="271" y="50" width="49" height="10" fill="#dea584"> <title>Rust 13.51%</title> </rect>
    <rect x="320" y="50" width="25" height="10" fill="#A97BFF"> <title>Kotlin 7.05%</title> </rect>
    <rect x="345" y="50" width="13" height="10" fill="#e34c26"> <title>HTML 3.68%</title> </rect>
    <rect x="358" y="50" width="9" height="10" fill="#384d54"> <title>Dockerfile 2.55%</title> </rect>
    <rect x="367" y="50" width="6" height="10" fill="#3572A5"> <title>Python 1.68%</title> </rect>
    <rect x="373" y="50" width="4" height="10" fill="#89e051"> <title>Shell 1.06%</title> </rect>
    <rect x="377" y="50" width="3" height="10" fill="#4F5D95"> <title>PHP 0.76%</title> </rect>
</g>
<g id="lang_legend">
<circle cx="30" cy="90" r="6" fill="#3178c6" />
<text x="46" y="94" font-size="13" font-family="system-ui, -apple-system, sans-serif" fill='currentColor'><tspan>TypeScript</tspan> 32.26%</text>
<circle cx="220" cy="90" r="6" fill="#f1e05a" />
<text x="236" y="94" font-size="13" font-family="system-ui, -apple-system, sans-serif" fill='currentColor'><tspan>JavaScript</tspan> 19.72%</text>
<circle cx="30" cy="114" r="6" fill="#663399" />
<text x="46" y="118" font-size="13" font-family="system-ui, -apple-system, sans-serif" fill='currentColor'><tspan>CSS</tspan> 17.73%</text>
<circle cx="220" cy="114" r="6" fill="#dea584" />
<text x="236" y="118" font-size="13" font-family="system-ui, -apple-system, sans-serif" fill='currentColor'><tspan>Rust</tspan> 13.51%</text>
<circle cx="30" cy="138" r="6" fill="#A97BFF" />
<text x="46" y="142" font-size="13" font-family="system-ui, -apple-system, sans-serif" fill='currentColor'><tspan>Kotlin</tspan> 7.05%</text>
<circle cx="220" cy="138" r="6" fill="#e34c26" />
<text x="236" y="142" font-size="13" font-family="system-ui, -apple-system, sans-serif" fill='currentColor'><tspan>HTML</tspan> 3.68%</text>
<circle cx="30" cy="162" r="6" fill="#384d54" />
<text x="46" y="166" font-size="13" font-family="system-ui, -apple-system, sans-serif" fill='currentColor'><tspan>Dockerfile</tspan> 2.55%</text>
<circle cx="220" cy="162" r="6" fill="#3572A5" />
<text x="236" y="166" font-size="13" font-family="system-ui, -apple-system, sans-serif" fill='currentColor'><tspan>Python</tspan> 1.68%</text>
<circle cx="30" cy="186" r="6" fill="#89e051" />
<text x="46" y="190" font-size="13" font-family="system-ui, -apple-system, sans-serif" fill='currentColor'><tspan>Shell</tspan> 1.06%</text>
<circle cx="220" cy="186" r="6" fill="#4F5D95" />
<text x="236" y="190" font-size="13" font-family="system-ui, -apple-system, sans-serif" fill='currentColor'><tspan>PHP</tspan> 0.76%</text>
</g>
</svg>
