<?xml version="1.0" encoding="UTF-8"?>
<svg width="410" height="278" xmlns="http://www.w3.org/2000/svg">
<style>text {
    color: #a89f9bff;
}

tspan {
    fill: #f3f3f3;
}

/* @media (prefers-color-scheme: dark) {
}
@media (prefers-color-scheme: light) {
    tspan {
        fill: #333;
        fill: #f3f3f3;
    }
} */

@keyframes fadeIn {
    from {
        opacity: 0;
    }
    to {
        opacity: 1;
    }
}
@keyframes slideIn {
    from {
        width: 0;
    }
    to {
        width: 660;
    }
}

#lang_legend,
#title {
    opacity: 0;
    animation: fadeIn 1s ease-in forwards;
}
#bar_back {
    animation: slideIn 1.7s ease-in forwards;
}
</style>
<rect id="border" x="1" y="1" width="408" height="276" fill='#19140fff' stroke-width="1" rx="15" ry="15" />
<text id="title" x="20" y="40" font-size="18" font-weight="bold" fill='#db4c0fff' font-family="system-ui, -apple-system, sans-serif">Most Used Languages</text>

<defs>
    <clipPath id="roundedClip">
        <rect id="bar_back" x="20" y="60" width="370" height="10" rx="5" ry="5">
        </rect>
    </clipPath>
</defs>
<rect width="370" height="10" x="20" y="60" rx="5" ry="5" fill='#ccc' />
<g clip-path="url(#roundedClip)">
    <rect x="20" y="60" width="159" height="10" fill="#3178c6"> <title>TypeScript 42.93%</title> </rect>
    <rect x="179" y="60" width="82" height="10" fill="#00ADD8"> <title>Go 22.06%</title> </rect>
    <rect x="261" y="60" width="33" height="10" fill="#663399"> <title>CSS 8.97%</title> </rect>
    <rect x="294" y="60" width="25" height="10" fill="#f1e05a"> <title>JavaScript 6.73%</title> </rect>
    <rect x="319" y="60" width="18" height="10" fill="#dea584"> <title>Rust 4.93%</title> </rect>
    <rect x="337" y="60" width="16" height="10" fill="#fcb32c"> <title>MDX 4.45%</title> </rect>
    <rect x="353" y="60" width="8" height="10" fill="#A97BFF"> <title>Kotlin 2.20%</title> </rect>
    <rect x="361" y="60" width="8" height="10" fill="#c6538c"> <title>SCSS 2.15%</title> </rect>
    <rect x="369" y="60" width="7" height="10" fill="#3572A5"> <title>Python 1.95%</title> </rect>
    <rect x="376" y="60" width="5" height="10" fill="#e34c26"> <title>HTML 1.39%</title> </rect>
    <rect x="381" y="60" width="3" height="10" fill="#384d54"> <title>Dockerfile 0.79%</title> </rect>
    <rect x="384" y="60" width="3" height="10" fill="#89e051"> <title>Shell 0.68%</title> </rect>
    <rect x="387" y="60" width="2" height="10" fill="#427819"> <title>Makefile 0.51%</title> </rect>
    <rect x="389" y="60" width="1" height="10" fill="#4F5D95"> <title>PHP 0.24%</title> </rect>
</g>
<g id="lang_legend">
<circle cx="30" cy="100" r="6" fill="#3178c6" />
<text x="46" y="104" font-size="13" font-family="system-ui, -apple-system, sans-serif" fill='currentColor'><tspan>TypeScript</tspan> 42.93%</text>
<circle cx="225" cy="100" r="6" fill="#00ADD8" />
<text x="241" y="104" font-size="13" font-family="system-ui, -apple-system, sans-serif" fill='currentColor'><tspan>Go</tspan> 22.06%</text>
<circle cx="30" cy="124" r="6" fill="#663399" />
<text x="46" y="128" font-size="13" font-family="system-ui, -apple-system, sans-serif" fill='currentColor'><tspan>CSS</tspan> 8.97%</text>
<circle cx="225" cy="124" r="6" fill="#f1e05a" />
<text x="241" y="128" font-size="13" font-family="system-ui, -apple-system, sans-serif" fill='currentColor'><tspan>JavaScript</tspan> 6.73%</text>
<circle cx="30" cy="148" r="6" fill="#dea584" />
<text x="46" y="152" font-size="13" font-family="system-ui, -apple-system, sans-serif" fill='currentColor'><tspan>Rust</tspan> 4.93%</text>
<circle cx="225" cy="148" r="6" fill="#fcb32c" />
<text x="241" y="152" font-size="13" font-family="system-ui, -apple-system, sans-serif" fill='currentColor'><tspan>MDX</tspan> 4.45%</text>
<circle cx="30" cy="172" r="6" fill="#A97BFF" />
<text x="46" y="176" font-size="13" font-family="system-ui, -apple-system, sans-serif" fill='currentColor'><tspan>Kotlin</tspan> 2.20%</text>
<circle cx="225" cy="172" r="6" fill="#c6538c" />
<text x="241" y="176" font-size="13" font-family="system-ui, -apple-system, sans-serif" fill='currentColor'><tspan>SCSS</tspan> 2.15%</text>
<circle cx="30" cy="196" r="6" fill="#3572A5" />
<text x="46" y="200" font-size="13" font-family="system-ui, -apple-system, sans-serif" fill='currentColor'><tspan>Python</tspan> 1.95%</text>
<circle cx="225" cy="196" r="6" fill="#e34c26" />
<text x="241" y="200" font-size="13" font-family="system-ui, -apple-system, sans-serif" fill='currentColor'><tspan>HTML</tspan> 1.39%</text>
<circle cx="30" cy="220" r="6" fill="#384d54" />
<text x="46" y="224" font-size="13" font-family="system-ui, -apple-system, sans-serif" fill='currentColor'><tspan>Dockerfile</tspan> 0.79%</text>
<circle cx="225" cy="220" r="6" fill="#89e051" />
<text x="241" y="224" font-size="13" font-family="system-ui, -apple-system, sans-serif" fill='currentColor'><tspan>Shell</tspan> 0.68%</text>
<circle cx="30" cy="244" r="6" fill="#427819" />
<text x="46" y="248" font-size="13" font-family="system-ui, -apple-system, sans-serif" fill='currentColor'><tspan>Makefile</tspan> 0.51%</text>
<circle cx="225" cy="244" r="6" fill="#4F5D95" />
<text x="241" y="248" font-size="13" font-family="system-ui, -apple-system, sans-serif" fill='currentColor'><tspan>PHP</tspan> 0.24%</text>
</g>
</svg>
